<svg width="11" height="12" viewBox="0 0 11 12" fill="none" xmlns="http://www.w3.org/2000/svg">
<path d="M7.93953 0.384644H2.60477C1.91414 0.385354 1.25199 0.683642 0.763643 1.21404C0.275295 1.74443 0.000654314 2.4636 0 3.21369V9.00777C0.000654314 9.75786 0.275295 10.477 0.763643 11.0074C1.25199 11.5378 1.91414 11.8361 2.60477 11.8368H7.93953C8.63008 11.8358 9.29208 11.5374 9.78037 11.0071C10.2687 10.4768 10.5434 9.75777 10.5443 9.00777V3.21369C10.5434 2.46368 10.2687 1.74468 9.78037 1.21435C9.29208 0.684016 8.63008 0.385638 7.93953 0.384644ZM7.88516 3.99923C7.7527 3.99906 7.62327 3.95622 7.51322 3.87615C7.40317 3.79607 7.31746 3.68236 7.26692 3.54938C7.21638 3.41639 7.20329 3.27012 7.22929 3.12906C7.25529 2.98799 7.31922 2.85847 7.413 2.75687C7.50678 2.65526 7.62619 2.58615 7.75614 2.55825C7.88608 2.53036 8.02073 2.54495 8.14304 2.60016C8.26536 2.65538 8.36985 2.74875 8.4433 2.86847C8.51676 2.98819 8.55588 3.12887 8.55571 3.27274C8.55561 3.36826 8.53818 3.46282 8.50442 3.55103C8.47066 3.63924 8.42124 3.71936 8.35897 3.78682C8.29671 3.85428 8.22282 3.90776 8.14152 3.94421C8.06022 3.98065 7.97311 3.99935 7.88516 3.99923ZM5.27215 3.38368C5.76875 3.38368 6.2542 3.54362 6.66711 3.84327C7.08002 4.14292 7.40185 4.56883 7.59189 5.06713C7.78193 5.56543 7.83165 6.11375 7.73477 6.64275C7.63789 7.17174 7.39875 7.65765 7.0476 8.03904C6.69645 8.42042 6.24906 8.68015 5.762 8.78537C5.27494 8.8906 4.77009 8.83659 4.31129 8.63019C3.85249 8.42379 3.46034 8.07425 3.18445 7.62579C2.90855 7.17733 2.76129 6.65008 2.76129 6.11073C2.76225 5.38779 3.02709 4.69476 3.49776 4.18356C3.96843 3.67237 4.60652 3.38472 5.27215 3.38368Z" fill="white"/>
<path d="M5.27215 7.75161C5.57096 7.75161 5.86306 7.65537 6.11151 7.47507C6.35996 7.29477 6.5536 7.0385 6.66795 6.73867C6.7823 6.43884 6.81222 6.10891 6.75392 5.79061C6.69563 5.47231 6.55174 5.17993 6.34045 4.95045C6.12916 4.72097 5.85996 4.56469 5.5669 4.50138C5.27383 4.43806 4.97006 4.47056 4.69399 4.59475C4.41793 4.71895 4.18198 4.92926 4.01597 5.19911C3.84996 5.46895 3.76135 5.78619 3.76135 6.11073C3.76179 6.54577 3.9211 6.96286 4.20434 7.27048C4.48757 7.57811 4.8716 7.75114 5.27215 7.75161Z" fill="white"/>
</svg>
