<svg width="16" height="12" viewBox="0 0 16 12" fill="none" xmlns="http://www.w3.org/2000/svg">
<path fill-rule="evenodd" clip-rule="evenodd" d="M2.25965 0.596836C1.05919 0.696342 0.151812 1.72626 0.093374 2.99523C0.0452268 4.04077 0 5.24392 0 6.07448C0 6.91454 0.0462674 8.13578 0.0950279 9.18958C0.152996 10.4423 1.0396 11.4654 2.22333 11.5807C3.5337 11.7083 5.42966 11.8368 7.75316 11.8368C10.0706 11.8368 11.9628 11.709 13.2728 11.5817C14.4611 11.4662 15.3494 10.4365 15.4066 9.17887C15.4571 8.06937 15.5063 6.79987 15.5063 6.07448C15.5063 5.35688 15.4581 4.10676 15.4082 3.00584C15.3505 1.73196 14.4417 0.695652 13.2367 0.596C11.9469 0.489349 10.0865 0.384644 7.75316 0.384644C5.41383 0.384644 3.54985 0.489894 2.25965 0.596836ZM6.20253 3.64633L10.1997 6.07448L6.20253 8.50263V3.64633Z" fill="white"/>
</svg>
