<svg width="196" height="125" viewBox="0 0 196 125" fill="none" xmlns="http://www.w3.org/2000/svg">
<circle cx="97.5" cy="62.5" r="62.5" fill="black"/>
<circle cx="97.5" cy="62.5" r="60" stroke="#202020" stroke-opacity="0.5"/>
<circle cx="97.5" cy="62.5" r="58" stroke="#202020" stroke-opacity="0.5"/>
<circle cx="97.5" cy="62.5" r="56" stroke="#202020" stroke-opacity="0.5"/>
<circle cx="97.5" cy="62.5" r="54" stroke="#202020" stroke-opacity="0.5"/>
<circle cx="97.5" cy="62.5" r="52" stroke="#202020" stroke-opacity="0.5"/>
<circle cx="97.5" cy="62.5" r="50" stroke="#202020" stroke-opacity="0.5"/>
<circle cx="97.5" cy="62.5" r="48" stroke="#202020" stroke-opacity="0.5"/>
<circle cx="97.5" cy="62.5" r="46" stroke="#202020" stroke-opacity="0.5"/>
<circle cx="97.5" cy="62.5" r="44" stroke="#202020" stroke-opacity="0.5"/>
<circle cx="97.5" cy="62.5" r="42" stroke="#202020" stroke-opacity="0.5"/>
<circle cx="97.5" cy="62.5" r="40" stroke="#202020" stroke-opacity="0.5"/>
<circle cx="97.5" cy="62.5" r="38" stroke="#202020" stroke-opacity="0.5"/>
<circle cx="97.5" cy="62.5" r="36" stroke="#202020" stroke-opacity="0.5"/>
<circle cx="97.5" cy="62.5" r="34" stroke="#202020" stroke-opacity="0.5"/>
<circle cx="97.5" cy="62.5" r="32" stroke="#202020" stroke-opacity="0.5"/>
<circle cx="97.5" cy="62.5" r="30" stroke="#202020" stroke-opacity="0.5"/>
<circle cx="97.5" cy="62.5" r="28" stroke="#202020" stroke-opacity="0.5"/>
<circle cx="97.5" cy="62.5" r="26" stroke="#202020" stroke-opacity="0.5"/>
<circle cx="97.5" cy="62.5" r="24" stroke="#202020" stroke-opacity="0.5"/>
<circle cx="14.5" cy="14.5" r="14.5" transform="matrix(1 0 0 -1 83 77)" fill="white"/>
<circle cx="1.5" cy="1.5" r="1.5" transform="matrix(1 0 0 -1 96 64)" fill="black"/>
<path d="M86.6413 10.752C86.6413 10.392 86.8573 10.2 87.3133 10.2H91.3453C95.4733 10.2 98.6172 12.768 98.6172 18.72C98.6172 24.408 95.4733 27 91.3453 27H87.3133C86.6413 27 86.6413 26.448 86.6413 26.448C86.6413 25.896 87.3133 25.344 87.3133 23.376V13.824C87.3133 11.856 86.6413 11.304 86.6413 10.752ZM90.5053 23.376C90.5053 25.056 90.4333 26.208 90.8893 26.208H91.3453C92.4253 26.208 95.0893 24.408 95.0893 18.72C95.0893 12.768 92.3533 10.992 91.3453 10.992H90.8893C90.4333 10.992 90.5053 12.144 90.5053 13.824V23.376ZM105.032 27.24C101.336 27.24 99.3444 24.288 99.3444 20.784C99.3444 17.04 101.336 14.76 104.864 14.76C107.048 14.76 109.352 15.768 109.352 18.48C109.352 20.832 107.432 21.264 105.392 21.264H102.872C102.872 25.008 104.192 26.448 105.032 26.448C106.064 26.448 106.856 25.248 107.264 24.144C107.456 23.616 107.864 23.4 108.248 23.4C108.824 23.4 109.376 23.904 109.16 24.6C108.848 25.608 107.336 27.24 105.032 27.24ZM104.864 15.552C104.168 15.552 103.04 17.232 102.896 20.472H104.432C105.56 20.472 105.824 19.344 105.824 18.384C105.824 17.04 105.56 15.552 104.864 15.552Z" fill="#CD2A3C"/>
<path d="M2.84575 34.48L7.13375 30.96C7.43242 30.704 7.79508 30.4907 8.22175 30.32C8.64842 30.1067 9.07508 30 9.50175 30C10.0138 30 10.4404 30.192 10.7818 30.576C11.1658 30.96 11.3578 31.6853 11.3578 32.752V68.336C11.3578 69.6587 11.4431 70.768 11.6138 71.664C11.8271 72.5173 12.0404 73.2427 12.2538 73.84C12.4671 74.4373 12.6591 74.9493 12.8298 75.376C13.0431 75.76 13.1498 76.144 13.1498 76.528C13.1498 76.784 13.0858 77.0187 12.9578 77.232C12.8298 77.4453 12.6378 77.6373 12.3818 77.808C12.1684 77.936 11.8271 78 11.3578 78H2.84575C2.50442 78 2.20575 77.936 1.94975 77.808C1.73642 77.7227 1.52308 77.5733 1.30975 77.36C1.13908 77.1467 1.05375 76.8693 1.05375 76.528C1.05375 76.144 1.13908 75.76 1.30975 75.376C1.52308 74.9493 1.73642 74.4373 1.94975 73.84C2.16308 73.2427 2.35508 72.5173 2.52575 71.664C2.73908 70.768 2.84575 69.6587 2.84575 68.336V39.728C2.84575 39.0027 2.71775 38.4267 2.46175 38C2.24842 37.5307 2.05642 37.1253 1.88575 36.784C1.75775 36.4 1.73642 36.0587 1.82175 35.76C1.90708 35.4187 2.24842 34.992 2.84575 34.48ZM30.2218 45.36C32.6964 45.36 34.8724 45.7653 36.7498 46.576C38.6271 47.344 40.2058 48.4747 41.4858 49.968C42.7658 51.4187 43.7258 53.168 44.3658 55.216C45.0484 57.2213 45.3898 59.4827 45.3898 62C45.3898 64.4747 45.0484 66.736 44.3658 68.784C43.7258 70.832 42.7658 72.6027 41.4858 74.096C40.2058 75.5467 38.6271 76.6773 36.7498 77.488C34.8724 78.256 32.6964 78.64 30.2218 78.64C27.7471 78.64 25.5711 78.256 23.6938 77.488C21.8164 76.6773 20.2378 75.5467 18.9578 74.096C17.6778 72.6027 16.6964 70.832 16.0138 68.784C15.3738 66.736 15.0538 64.4747 15.0538 62C15.0538 59.4827 15.3738 57.2213 16.0138 55.216C16.6964 53.168 17.6778 51.4187 18.9578 49.968C20.2378 48.4747 21.8164 47.344 23.6938 46.576C25.5711 45.7653 27.7471 45.36 30.2218 45.36ZM24.4618 62C24.4618 64.4747 24.6324 66.6293 24.9738 68.464C25.3151 70.2987 25.7631 71.8133 26.3178 73.008C26.8724 74.2027 27.4911 75.0987 28.1738 75.696C28.8564 76.2507 29.5391 76.528 30.2218 76.528C30.9044 76.528 31.5871 76.2507 32.2698 75.696C32.9524 75.0987 33.5711 74.2027 34.1258 73.008C34.6804 71.8133 35.1284 70.2987 35.4698 68.464C35.8111 66.6293 35.9818 64.4747 35.9818 62C35.9818 59.4827 35.8111 57.328 35.4698 55.536C35.1284 53.7013 34.6804 52.1867 34.1258 50.992C33.5711 49.7973 32.9524 48.9227 32.2698 48.368C31.5871 47.7707 30.9044 47.472 30.2218 47.472C29.5391 47.472 28.8564 47.7707 28.1738 48.368C27.4911 48.9227 26.8724 49.7973 26.3178 50.992C25.7631 52.1867 25.3151 53.7013 24.9738 55.536C24.6324 57.328 24.4618 59.4827 24.4618 62ZM62.4718 45.36C63.6664 45.36 64.8611 45.5093 66.0558 45.808C67.2931 46.1067 68.4024 46.5547 69.3838 47.152C70.4078 47.7067 71.2184 48.4107 71.8158 49.264C72.4558 50.1173 72.7758 51.0773 72.7758 52.144C72.7758 52.9547 72.4344 53.744 71.7518 54.512C71.0691 55.2373 70.1091 55.6 68.8718 55.6C68.1038 55.6 67.4638 55.408 66.9518 55.024C66.4824 54.5973 66.0771 54.0853 65.7358 53.488C65.4371 52.8907 65.1811 52.2507 64.9678 51.568C64.7544 50.8427 64.5411 50.1813 64.3278 49.584C64.1144 48.9867 63.8584 48.496 63.5598 48.112C63.3038 47.6853 62.9411 47.472 62.4718 47.472C61.9598 47.472 61.3624 47.7707 60.6798 48.368C60.0398 48.9227 59.4211 49.8187 58.8238 51.056C58.2264 52.2507 57.7144 53.7653 57.2878 55.6C56.9038 57.392 56.7118 59.5467 56.7118 62.064C56.7118 64.4107 56.9038 66.48 57.2878 68.272C57.6718 70.064 58.1411 71.5787 58.6958 72.816C59.2931 74.0107 59.9331 74.928 60.6158 75.568C61.2984 76.208 61.9171 76.528 62.4718 76.528C63.1118 76.528 63.6878 76.3573 64.1998 76.016C64.7544 75.6747 65.2451 75.2267 65.6718 74.672C66.0984 74.1173 66.4824 73.4987 66.8238 72.816C67.1651 72.0907 67.4211 71.3867 67.5918 70.704C67.8051 69.936 68.1464 69.4027 68.6158 69.104C69.1278 68.7627 69.6611 68.592 70.2158 68.592C70.9411 68.592 71.6024 68.8693 72.1998 69.424C72.7971 69.9787 72.9891 70.704 72.7758 71.6C72.6478 72.1547 72.3278 72.8373 71.8158 73.648C71.3038 74.4587 70.5998 75.248 69.7038 76.016C68.8504 76.7413 67.8051 77.36 66.5678 77.872C65.3731 78.384 64.0078 78.64 62.4718 78.64C59.9971 78.64 57.8211 78.2133 55.9438 77.36C54.0664 76.5067 52.4878 75.3333 51.2078 73.84C49.9278 72.3467 48.9464 70.5973 48.2638 68.592C47.6238 66.5867 47.3038 64.4107 47.3038 62.064C47.3038 59.5467 47.6238 57.264 48.2638 55.216C48.9464 53.168 49.9278 51.4187 51.2078 49.968C52.4878 48.5173 54.0664 47.3867 55.9438 46.576C57.8211 45.7653 59.9971 45.36 62.4718 45.36ZM88.1813 56.816C88.8213 56.5173 89.4613 56.176 90.1013 55.792C90.7413 55.408 91.3173 55.0453 91.8293 54.704C91.6586 52.656 91.2746 50.9493 90.6772 49.584C90.0799 48.176 89.2266 47.472 88.1173 47.472C87.4346 47.472 86.7519 47.8987 86.0693 48.752C85.4293 49.6053 84.7466 50.544 84.0213 51.568C83.2959 52.5493 82.4853 53.4667 81.5893 54.32C80.6933 55.1733 79.6693 55.6 78.5173 55.6C77.2799 55.6 76.3839 55.2373 75.8293 54.512C75.3173 53.744 75.0613 52.9547 75.0613 52.144C75.0613 51.0773 75.3813 50.1173 76.0213 49.264C76.6613 48.4107 77.5573 47.7067 78.7093 47.152C79.8613 46.5547 81.2266 46.1067 82.8053 45.808C84.4266 45.5093 86.1973 45.36 88.1173 45.36C91.7439 45.36 94.3466 46.0213 95.9253 47.344C97.5466 48.624 98.5706 50.4587 98.9973 52.848C99.0826 53.36 99.1679 54.1493 99.2533 55.216C99.3386 56.2827 99.4239 57.4773 99.5093 58.8C99.5946 60.08 99.6799 61.4453 99.7653 62.896C99.8506 64.304 99.9146 65.648 99.9573 66.928C100.043 68.1653 100.128 69.296 100.213 70.32C100.299 71.3013 100.384 72.0053 100.469 72.432C100.555 72.9013 100.704 73.3067 100.917 73.648C101.173 73.9467 101.408 74.2453 101.621 74.544C101.835 74.8427 102.027 75.1413 102.197 75.44C102.368 75.7387 102.453 76.1013 102.453 76.528C102.453 76.9973 102.261 77.36 101.877 77.616C101.536 77.872 101.109 78 100.597 78H92.5333C92.1493 78 91.7866 77.872 91.4453 77.616C91.1039 77.3173 90.8479 76.8693 90.6772 76.272C89.7386 76.9973 88.6293 77.5733 87.3493 78C86.1119 78.4693 84.8959 78.704 83.7013 78.704C82.3359 78.704 81.0986 78.448 79.9893 77.936C78.8799 77.3813 77.9413 76.6773 77.1733 75.824C76.4053 74.928 75.8079 73.9467 75.3813 72.88C74.9546 71.7707 74.7413 70.64 74.7413 69.488C74.7413 67.44 75.1466 65.7547 75.9573 64.432C76.8106 63.0667 77.8773 61.936 79.1573 61.04C80.4799 60.144 81.9306 59.376 83.5093 58.736C85.1306 58.096 86.6879 57.456 88.1813 56.816ZM90.5493 73.392C90.7199 71.5573 90.9546 69.4667 91.2533 67.12C91.5946 64.7307 91.8293 61.936 91.9573 58.736V57.648C91.6159 57.904 91.1893 58.2027 90.6772 58.544C90.1653 58.8853 89.6106 59.2693 89.0133 59.696C88.4586 60.08 87.8826 60.5493 87.2853 61.104C86.7306 61.616 86.2186 62.2347 85.7493 62.96C85.2799 63.6853 84.8959 64.5387 84.5973 65.52C84.2986 66.5013 84.1493 67.632 84.1493 68.912C84.1493 69.3813 84.1919 69.936 84.2773 70.576C84.3626 71.1733 84.5119 71.7707 84.7253 72.368C84.9813 72.9227 85.3226 73.4133 85.7493 73.84C86.1759 74.224 86.7519 74.416 87.4773 74.416C88.0746 74.416 88.6079 74.3307 89.0773 74.16C89.5893 73.9467 90.0799 73.6907 90.5493 73.392ZM102.892 46H107.372V42.928C106.39 41.904 105.836 41.0293 105.708 40.304C105.58 39.536 106.134 38.6613 107.372 37.68L111.66 34.16C111.958 33.904 112.321 33.6907 112.748 33.52C113.174 33.3067 113.601 33.2 114.028 33.2C114.54 33.2 114.966 33.392 115.308 33.776C115.692 34.16 115.884 34.8853 115.884 35.952V46H120.364C120.748 46 121.025 46.1067 121.196 46.32C121.366 46.5333 121.452 46.7893 121.452 47.088C121.452 47.344 121.366 47.5787 121.196 47.792C121.025 48.0053 120.748 48.112 120.364 48.112H115.884V64.304C115.884 64.9867 115.884 65.968 115.884 67.248C115.926 68.528 116.012 69.808 116.14 71.088C116.268 72.3253 116.46 73.4133 116.716 74.352C116.972 75.2907 117.334 75.76 117.804 75.76C118.657 75.76 119.19 75.248 119.404 74.224C119.617 73.1573 119.788 71.8773 119.916 70.384C120.001 69.5307 120.3 68.8907 120.812 68.464C121.366 68.0373 121.964 67.824 122.604 67.824C123.329 67.824 123.969 68.1013 124.524 68.656C125.121 69.168 125.377 69.9147 125.292 70.896C125.249 71.5787 125.036 72.3253 124.652 73.136C124.268 73.9467 123.713 74.7147 122.988 75.44C122.262 76.1653 121.324 76.784 120.172 77.296C119.062 77.7653 117.718 78 116.14 78C114.518 78 113.174 77.7653 112.108 77.296C111.084 76.8267 110.23 76.208 109.548 75.44C108.908 74.672 108.438 73.7973 108.14 72.816C107.841 71.8347 107.628 70.832 107.5 69.808C107.372 68.784 107.308 67.8027 107.308 66.864C107.35 65.8827 107.372 65.0293 107.372 64.304V48.112H102.892C102.508 48.112 102.23 48.0053 102.06 47.792C101.889 47.5787 101.804 47.344 101.804 47.088C101.804 46.7893 101.889 46.5333 102.06 46.32C102.23 46.1067 102.508 46 102.892 46ZM129.096 50.736L133.384 47.216C133.725 46.9173 134.109 46.64 134.536 46.384C135.005 46.128 135.474 46 135.944 46C136.413 46 136.797 46.2133 137.096 46.64C137.437 47.0667 137.608 47.856 137.608 49.008V68.336C137.608 69.6587 137.693 70.768 137.864 71.664C138.077 72.5173 138.29 73.2427 138.504 73.84C138.717 74.4373 138.909 74.9493 139.08 75.376C139.293 75.76 139.4 76.144 139.4 76.528C139.4 76.784 139.336 77.0187 139.208 77.232C139.08 77.4453 138.888 77.6373 138.632 77.808C138.418 77.936 138.077 78 137.608 78H129.096C128.754 78 128.456 77.936 128.2 77.808C127.986 77.7227 127.773 77.5733 127.56 77.36C127.389 77.1467 127.304 76.8693 127.304 76.528C127.304 76.144 127.389 75.76 127.56 75.376C127.773 74.9493 127.986 74.4373 128.2 73.84C128.413 73.2427 128.605 72.5173 128.776 71.664C128.989 70.768 129.096 69.6587 129.096 68.336V55.984C128.114 54.96 127.56 54.0853 127.432 53.36C127.304 52.592 127.858 51.7173 129.096 50.736ZM133.384 30C135.005 30 136.37 30.576 137.48 31.728C138.589 32.88 139.144 34.2667 139.144 35.888C139.144 36.6987 138.994 37.4667 138.696 38.192C138.397 38.8747 137.992 39.4933 137.48 40.048C136.968 40.56 136.349 40.9653 135.624 41.264C134.941 41.5627 134.194 41.712 133.384 41.712C131.762 41.712 130.376 41.1573 129.224 40.048C128.114 38.896 127.56 37.5093 127.56 35.888C127.56 35.0773 127.709 34.3307 128.008 33.648C128.306 32.9227 128.712 32.304 129.224 31.792C129.778 31.2373 130.397 30.8107 131.08 30.512C131.805 30.1707 132.573 30 133.384 30ZM141.304 61.424C141.304 56.3893 142.562 52.464 145.08 49.648C147.64 46.7893 151.288 45.36 156.024 45.36C157.474 45.36 158.904 45.552 160.312 45.936C161.762 46.2773 163.042 46.8533 164.152 47.664C165.304 48.432 166.221 49.456 166.904 50.736C167.629 51.9733 167.992 53.488 167.992 55.28C167.992 56.8587 167.693 58.1387 167.096 59.12C166.498 60.0587 165.709 60.8053 164.728 61.36C163.746 61.872 162.616 62.2347 161.336 62.448C160.098 62.6187 158.797 62.704 157.432 62.704H150.712C150.712 65.1787 150.904 67.312 151.288 69.104C151.672 70.8533 152.141 72.2827 152.696 73.392C153.293 74.4587 153.933 75.248 154.616 75.76C155.298 76.272 155.917 76.528 156.472 76.528C157.154 76.528 157.794 76.3573 158.392 76.016C158.989 75.632 159.544 75.1627 160.056 74.608C160.568 74.0107 161.016 73.3493 161.4 72.624C161.826 71.856 162.168 71.1093 162.424 70.384C162.68 69.6587 163.042 69.1467 163.512 68.848C164.024 68.5493 164.536 68.4 165.048 68.4C165.816 68.4 166.477 68.6987 167.032 69.296C167.629 69.8933 167.778 70.6613 167.48 71.6C167.266 72.2827 166.861 73.0293 166.264 73.84C165.666 74.6507 164.898 75.4187 163.96 76.144C163.021 76.8267 161.912 77.424 160.632 77.936C159.394 78.4053 158.008 78.64 156.472 78.64C153.997 78.64 151.821 78.192 149.944 77.296C148.066 76.3573 146.488 75.0987 145.208 73.52C143.928 71.9413 142.946 70.128 142.264 68.08C141.624 65.9893 141.304 63.7707 141.304 61.424ZM150.776 60.592H154.872C155.64 60.592 156.258 60.4213 156.728 60.08C157.197 59.7387 157.56 59.312 157.816 58.8C158.114 58.2453 158.306 57.648 158.392 57.008C158.52 56.3253 158.584 55.664 158.584 55.024C158.584 54.128 158.541 53.232 158.456 52.336C158.37 51.44 158.221 50.6293 158.008 49.904C157.794 49.1787 157.517 48.6027 157.176 48.176C156.877 47.7067 156.493 47.472 156.024 47.472C155.554 47.472 155.021 47.7493 154.424 48.304C153.869 48.8587 153.336 49.6907 152.824 50.8C152.312 51.9093 151.864 53.2747 151.48 54.896C151.096 56.5173 150.861 58.416 150.776 60.592ZM173.833 67.632C174.601 67.632 175.241 67.8667 175.753 68.336C176.265 68.7627 176.691 69.296 177.033 69.936C177.374 70.576 177.694 71.3013 177.993 72.112C178.291 72.88 178.611 73.584 178.953 74.224C179.294 74.864 179.699 75.4187 180.169 75.888C180.681 76.3147 181.321 76.528 182.089 76.528C182.686 76.528 183.219 76.4 183.689 76.144C184.201 75.8453 184.627 75.4827 184.969 75.056C185.31 74.6293 185.566 74.1387 185.737 73.584C185.95 73.0293 186.057 72.4747 186.057 71.92C186.057 70.768 185.651 69.744 184.841 68.848C184.073 67.9093 183.091 67.0347 181.897 66.224C180.702 65.3707 179.422 64.5387 178.057 63.728C176.691 62.9173 175.411 62.064 174.217 61.168C173.022 60.272 172.019 59.2907 171.209 58.224C170.441 57.1147 170.057 55.856 170.057 54.448C170.057 52.784 170.483 51.376 171.337 50.224C172.233 49.072 173.321 48.1333 174.601 47.408C175.881 46.6827 177.246 46.1707 178.697 45.872C180.147 45.5307 181.47 45.36 182.665 45.36C184.542 45.36 186.227 45.552 187.721 45.936C189.214 46.32 190.494 46.8533 191.561 47.536C192.627 48.2187 193.438 49.0293 193.993 49.968C194.59 50.864 194.889 51.8453 194.889 52.912C194.889 53.7227 194.547 54.512 193.865 55.28C193.182 56.0053 192.222 56.368 190.985 56.368C190.217 56.368 189.577 56.1547 189.065 55.728C188.553 55.2587 188.126 54.704 187.785 54.064C187.443 53.424 187.123 52.72 186.825 51.952C186.526 51.1413 186.206 50.416 185.865 49.776C185.523 49.136 185.097 48.6027 184.585 48.176C184.115 47.7067 183.497 47.472 182.729 47.472C182.131 47.472 181.577 47.6213 181.065 47.92C180.595 48.176 180.19 48.5173 179.849 48.944C179.507 49.3707 179.23 49.8613 179.017 50.416C178.846 50.9707 178.761 51.5253 178.761 52.08C178.761 53.232 179.145 54.2773 179.913 55.216C180.723 56.1547 181.726 57.0507 182.921 57.904C184.158 58.7573 185.459 59.6107 186.825 60.464C188.233 61.2747 189.534 62.1493 190.729 63.088C191.966 64.0267 192.969 65.0507 193.737 66.16C194.547 67.2267 194.953 68.464 194.953 69.872C194.953 71.536 194.505 72.9227 193.609 74.032C192.713 75.1413 191.603 76.0373 190.281 76.72C189.001 77.4027 187.614 77.8933 186.121 78.192C184.67 78.4907 183.347 78.64 182.153 78.64C180.318 78.64 178.633 78.448 177.097 78.064C175.603 77.68 174.323 77.1467 173.257 76.464C172.19 75.7813 171.358 74.992 170.761 74.096C170.206 73.1573 169.929 72.1547 169.929 71.088C169.929 70.2773 170.27 69.5093 170.953 68.784C171.635 68.016 172.595 67.632 173.833 67.632Z" fill="#CD2A3C"/>
</svg>
