<svg width="228" height="125" viewBox="0 0 228 125" fill="none" xmlns="http://www.w3.org/2000/svg">
<circle cx="113.5" cy="62.5" r="62.5" fill="black"/>
<circle cx="113.5" cy="62.5" r="60" stroke="#202020" stroke-opacity="0.5"/>
<circle cx="113.5" cy="62.5" r="58" stroke="#202020" stroke-opacity="0.5"/>
<circle cx="113.5" cy="62.5" r="56" stroke="#202020" stroke-opacity="0.5"/>
<circle cx="113.5" cy="62.5" r="54" stroke="#202020" stroke-opacity="0.5"/>
<circle cx="113.5" cy="62.5" r="52" stroke="#202020" stroke-opacity="0.5"/>
<circle cx="113.5" cy="62.5" r="50" stroke="#202020" stroke-opacity="0.5"/>
<circle cx="113.5" cy="62.5" r="48" stroke="#202020" stroke-opacity="0.5"/>
<circle cx="113.5" cy="62.5" r="46" stroke="#202020" stroke-opacity="0.5"/>
<circle cx="113.5" cy="62.5" r="44" stroke="#202020" stroke-opacity="0.5"/>
<circle cx="113.5" cy="62.5" r="42" stroke="#202020" stroke-opacity="0.5"/>
<circle cx="113.5" cy="62.5" r="40" stroke="#202020" stroke-opacity="0.5"/>
<circle cx="113.5" cy="62.5" r="38" stroke="#202020" stroke-opacity="0.5"/>
<circle cx="113.5" cy="62.5" r="36" stroke="#202020" stroke-opacity="0.5"/>
<circle cx="113.5" cy="62.5" r="34" stroke="#202020" stroke-opacity="0.5"/>
<circle cx="113.5" cy="62.5" r="32" stroke="#202020" stroke-opacity="0.5"/>
<circle cx="113.5" cy="62.5" r="30" stroke="#202020" stroke-opacity="0.5"/>
<circle cx="113.5" cy="62.5" r="28" stroke="#202020" stroke-opacity="0.5"/>
<circle cx="113.5" cy="62.5" r="26" stroke="#202020" stroke-opacity="0.5"/>
<circle cx="113.5" cy="62.5" r="24" stroke="#202020" stroke-opacity="0.5"/>
<circle cx="14.5" cy="14.5" r="14.5" transform="matrix(1 0 0 -1 99 77)" fill="white"/>
<circle cx="1.5" cy="1.5" r="1.5" transform="matrix(1 0 0 -1 112 64)" fill="black"/>
<path d="M98.0554 23.376V13.824C98.0554 13.328 98.0154 12.92 97.9354 12.6C97.8714 12.264 97.7994 11.984 97.7194 11.76C97.6394 11.536 97.5594 11.352 97.4794 11.208C97.4154 11.048 97.3834 10.896 97.3834 10.752C97.3834 10.384 97.6074 10.2 98.0554 10.2H101.247C101.375 10.2 101.487 10.224 101.583 10.272C101.663 10.304 101.735 10.36 101.799 10.44C101.879 10.504 101.919 10.608 101.919 10.752C101.919 10.896 101.879 11.048 101.799 11.208C101.735 11.352 101.663 11.536 101.583 11.76C101.503 11.984 101.423 12.264 101.343 12.6C101.279 12.92 101.247 13.328 101.247 13.824V17.904C101.247 18.128 101.295 18.304 101.391 18.432C101.503 18.56 101.647 18.624 101.823 18.624H105.087C105.263 18.624 105.407 18.56 105.519 18.432C105.631 18.304 105.687 18.128 105.687 17.904V13.824C105.687 13.328 105.647 12.92 105.567 12.6C105.503 12.264 105.431 11.984 105.351 11.76C105.271 11.536 105.191 11.352 105.111 11.208C105.047 11.048 105.015 10.896 105.015 10.752C105.015 10.384 105.239 10.2 105.687 10.2H108.879C109.007 10.2 109.119 10.224 109.215 10.272C109.295 10.304 109.367 10.36 109.431 10.44C109.511 10.504 109.551 10.608 109.551 10.752C109.551 10.896 109.511 11.048 109.431 11.208C109.367 11.352 109.295 11.536 109.215 11.76C109.135 11.984 109.055 12.264 108.975 12.6C108.911 12.92 108.879 13.328 108.879 13.824V23.376C108.879 23.872 108.911 24.288 108.975 24.624C109.055 24.944 109.135 25.216 109.215 25.44C109.295 25.664 109.367 25.856 109.431 26.016C109.511 26.16 109.551 26.304 109.551 26.448C109.551 26.816 109.327 27 108.879 27H105.687C105.559 27 105.447 26.976 105.351 26.928C105.271 26.896 105.191 26.84 105.111 26.76C105.047 26.68 105.015 26.576 105.015 26.448C105.015 26.304 105.047 26.16 105.111 26.016C105.191 25.856 105.271 25.664 105.351 25.44C105.431 25.216 105.503 24.944 105.567 24.624C105.647 24.288 105.687 23.872 105.687 23.376V20.016C105.687 19.792 105.631 19.64 105.519 19.56C105.407 19.464 105.263 19.416 105.087 19.416H101.823C101.647 19.416 101.503 19.464 101.391 19.56C101.295 19.64 101.247 19.792 101.247 20.016V23.376C101.247 23.872 101.279 24.288 101.343 24.624C101.423 24.944 101.503 25.216 101.583 25.44C101.663 25.664 101.735 25.856 101.799 26.016C101.879 26.16 101.919 26.304 101.919 26.448C101.919 26.816 101.695 27 101.247 27H98.0554C97.9274 27 97.8154 26.976 97.7194 26.928C97.6394 26.896 97.5594 26.84 97.4794 26.76C97.4154 26.68 97.3834 26.576 97.3834 26.448C97.3834 26.304 97.4154 26.16 97.4794 26.016C97.5594 25.856 97.6394 25.664 97.7194 25.44C97.7994 25.216 97.8714 24.944 97.9354 24.624C98.0154 24.288 98.0554 23.872 98.0554 23.376ZM110.274 20.784C110.274 18.896 110.746 17.424 111.69 16.368C112.65 15.296 114.018 14.76 115.794 14.76C116.338 14.76 116.874 14.832 117.402 14.976C117.946 15.104 118.426 15.32 118.842 15.624C119.274 15.912 119.618 16.296 119.874 16.776C120.146 17.24 120.282 17.808 120.282 18.48C120.282 19.072 120.17 19.552 119.946 19.92C119.722 20.272 119.426 20.552 119.058 20.76C118.69 20.952 118.266 21.088 117.786 21.168C117.322 21.232 116.834 21.264 116.322 21.264H113.802C113.802 22.192 113.874 22.992 114.018 23.664C114.162 24.32 114.338 24.856 114.546 25.272C114.77 25.672 115.01 25.968 115.266 26.16C115.522 26.352 115.754 26.448 115.962 26.448C116.218 26.448 116.458 26.384 116.682 26.256C116.906 26.112 117.114 25.936 117.306 25.728C117.498 25.504 117.666 25.256 117.81 24.984C117.97 24.696 118.098 24.416 118.194 24.144C118.29 23.872 118.426 23.68 118.602 23.568C118.794 23.456 118.986 23.4 119.178 23.4C119.466 23.4 119.714 23.512 119.922 23.736C120.146 23.96 120.202 24.248 120.09 24.6C120.01 24.856 119.858 25.136 119.634 25.44C119.41 25.744 119.122 26.032 118.77 26.304C118.418 26.56 118.002 26.784 117.522 26.976C117.058 27.152 116.538 27.24 115.962 27.24C115.034 27.24 114.218 27.072 113.514 26.736C112.81 26.384 112.218 25.912 111.738 25.32C111.258 24.728 110.89 24.048 110.634 23.28C110.394 22.496 110.274 21.664 110.274 20.784ZM113.826 20.472H115.362C115.65 20.472 115.882 20.408 116.058 20.28C116.234 20.152 116.37 19.992 116.466 19.8C116.578 19.592 116.65 19.368 116.682 19.128C116.73 18.872 116.754 18.624 116.754 18.384C116.754 18.048 116.738 17.712 116.706 17.376C116.674 17.04 116.618 16.736 116.538 16.464C116.458 16.192 116.354 15.976 116.226 15.816C116.114 15.64 115.97 15.552 115.794 15.552C115.618 15.552 115.418 15.656 115.194 15.864C114.986 16.072 114.786 16.384 114.594 16.8C114.402 17.216 114.234 17.728 114.09 18.336C113.946 18.944 113.858 19.656 113.826 20.472ZM121.182 15H122.862V13.848C122.494 13.464 122.286 13.136 122.238 12.864C122.19 12.576 122.398 12.248 122.862 11.88L124.47 10.56C124.582 10.464 124.718 10.384 124.878 10.32C125.038 10.24 125.198 10.2 125.358 10.2C125.55 10.2 125.71 10.272 125.838 10.416C125.982 10.56 126.054 10.832 126.054 11.232V15H127.734C127.878 15 127.982 15.04 128.046 15.12C128.11 15.2 128.142 15.296 128.142 15.408C128.142 15.504 128.11 15.592 128.046 15.672C127.982 15.752 127.878 15.792 127.734 15.792H126.054V21.864C126.054 22.12 126.054 22.488 126.054 22.968C126.07 23.448 126.102 23.928 126.15 24.408C126.198 24.872 126.27 25.28 126.366 25.632C126.462 25.984 126.598 26.16 126.774 26.16C127.094 26.16 127.294 25.968 127.374 25.584C127.454 25.184 127.518 24.704 127.566 24.144C127.598 23.824 127.71 23.584 127.902 23.424C128.11 23.264 128.334 23.184 128.574 23.184C128.846 23.184 129.086 23.288 129.294 23.496C129.518 23.688 129.614 23.968 129.582 24.336C129.566 24.592 129.486 24.872 129.342 25.176C129.198 25.48 128.99 25.768 128.718 26.04C128.446 26.312 128.094 26.544 127.662 26.736C127.246 26.912 126.742 27 126.15 27C125.542 27 125.038 26.912 124.638 26.736C124.254 26.56 123.934 26.328 123.678 26.04C123.438 25.752 123.262 25.424 123.15 25.056C123.038 24.688 122.958 24.312 122.91 23.928C122.862 23.544 122.838 23.176 122.838 22.824C122.854 22.456 122.862 22.136 122.862 21.864V15.792H121.182C121.038 15.792 120.934 15.752 120.87 15.672C120.806 15.592 120.774 15.504 120.774 15.408C120.774 15.296 120.806 15.2 120.87 15.12C120.934 15.04 121.038 15 121.182 15Z" fill="#CD2A3C"/>
<path d="M3.15825 55.984C1.17425 53.936 0.72625 52.72 3.15825 50.736L7.44625 47.216C8.08625 46.64 9.11025 46 10.0063 46C10.9023 46 11.6703 46.704 11.6703 49.008V68.336C11.6703 73.584 13.4623 75.056 13.4623 76.528C13.4623 78 11.6703 78 11.6703 78H3.15825C1.36625 78 1.36625 76.528 1.36625 76.528C1.36625 75.056 3.15825 73.584 3.15825 68.336V55.984ZM1.62225 35.888C1.62225 32.688 4.18225 30 7.44625 30C10.6463 30 13.2063 32.688 13.2063 35.888C13.2063 39.152 10.6463 41.712 7.44625 41.712C4.18225 41.712 1.62225 39.152 1.62225 35.888ZM17.1583 55.728C17.1583 52.848 14.7263 52.464 17.1583 50.48L21.4463 46.96C22.0223 46.448 22.9823 46 23.8142 46C24.8383 46 25.6703 46.64 25.6703 48.752V50.096C27.8463 47.408 30.5343 45.36 34.0543 45.36C38.1503 45.36 41.7983 48.112 42.6303 52.848C43.2063 56.048 43.5903 69.808 44.1023 72.432C44.4863 74.352 46.0863 74.8 46.0863 76.528C46.0863 77.488 45.2543 78 44.2303 78H36.1663C35.0783 78 34.0543 77.04 34.1183 74.672C34.2463 70.832 35.3343 65.904 35.5903 58.736C35.7823 52.848 35.9743 48.816 32.3903 48.816C30.3423 48.816 27.7183 50.864 25.6703 53.872V68.336C25.6703 73.584 27.4623 75.056 27.4623 76.528C27.4623 78 25.6703 78 25.6703 78H17.1583C15.9423 78 15.3663 77.488 15.3663 76.528C15.3663 75.056 17.1583 73.584 17.1583 68.336V55.728ZM49.7833 55.984C47.7993 53.936 47.3513 52.72 49.7833 50.736L54.0713 47.216C54.7113 46.64 55.7353 46 56.6313 46C57.5273 46 58.2953 46.704 58.2953 49.008V68.336C58.2953 73.584 60.0873 75.056 60.0873 76.528C60.0873 78 58.2953 78 58.2953 78H49.7833C47.9913 78 47.9913 76.528 47.9913 76.528C47.9913 75.056 49.7833 73.584 49.7833 68.336V55.984ZM48.2473 35.888C48.2473 32.688 50.8073 30 54.0713 30C57.2713 30 59.8313 32.688 59.8313 35.888C59.8313 39.152 57.2713 41.712 54.0713 41.712C50.8073 41.712 48.2473 39.152 48.2473 35.888ZM62.4543 48.112C60.9823 48.112 60.9823 46 62.4543 46H66.9343V42.928C64.9503 40.88 64.5023 39.664 66.9343 37.68L71.2223 34.16C71.7983 33.648 72.7583 33.2 73.5903 33.2C74.6143 33.2 75.4463 33.84 75.4463 35.952V46H79.9263C81.3983 46 81.3983 48.112 79.9263 48.112H75.4463V64.304C75.4463 66.992 75.4463 75.76 77.3663 75.76C79.0943 75.76 79.2863 73.392 79.4783 70.384C79.6063 68.656 80.8863 67.824 82.1663 67.824C83.6383 67.824 85.0463 68.912 84.8543 70.896C84.5983 73.584 82.0383 78 75.7023 78C66.0383 78 66.9343 68.72 66.9343 64.304V48.112H62.4543ZM88.6583 55.984C86.6743 53.936 86.2263 52.72 88.6583 50.736L92.9463 47.216C93.5863 46.64 94.6103 46 95.5063 46C96.4023 46 97.1703 46.704 97.1703 49.008V68.336C97.1703 73.584 98.9623 75.056 98.9623 76.528C98.9623 78 97.1703 78 97.1703 78H88.6583C86.8663 78 86.8663 76.528 86.8663 76.528C86.8663 75.056 88.6583 73.584 88.6583 68.336V55.984ZM87.1223 35.888C87.1223 32.688 89.6823 30 92.9463 30C96.1463 30 98.7063 32.688 98.7063 35.888C98.7063 39.152 96.1463 41.712 92.9463 41.712C89.6823 41.712 87.1223 39.152 87.1223 35.888ZM100.866 69.488C100.866 61.232 108.29 59.504 114.306 56.816C115.586 56.24 116.93 55.408 117.954 54.704C117.634 50.608 116.418 47.472 114.242 47.472C111.426 47.472 109.314 55.6 104.642 55.6C102.146 55.6 101.186 53.744 101.186 52.144C101.186 47.856 106.562 45.36 114.242 45.36C121.474 45.36 124.29 48.112 125.122 52.848C125.698 56.048 126.082 69.808 126.594 72.432C126.978 74.352 128.578 74.8 128.578 76.528C128.578 77.488 127.746 78 126.722 78H118.658C117.89 78 117.122 77.488 116.802 76.272C114.946 77.68 112.194 78.704 109.826 78.704C104.322 78.704 100.866 74.032 100.866 69.488ZM115.138 59.696C112.962 61.232 110.274 63.792 110.274 68.912C110.274 70.768 110.722 74.416 113.602 74.416C114.754 74.416 115.714 73.968 116.674 73.392C116.994 69.744 117.826 65.136 118.082 58.736V57.648C117.378 58.16 116.354 58.864 115.138 59.696ZM129.017 48.112C127.545 48.112 127.545 46 129.017 46H133.497V42.928C131.513 40.88 131.065 39.664 133.497 37.68L137.785 34.16C138.361 33.648 139.321 33.2 140.153 33.2C141.177 33.2 142.009 33.84 142.009 35.952V46H146.489C147.961 46 147.961 48.112 146.489 48.112H142.009V64.304C142.009 66.992 142.009 75.76 143.929 75.76C145.657 75.76 145.849 73.392 146.041 70.384C146.169 68.656 147.449 67.824 148.729 67.824C150.201 67.824 151.609 68.912 151.417 70.896C151.161 73.584 148.601 78 142.265 78C132.601 78 133.497 68.72 133.497 64.304V48.112H129.017ZM155.221 55.984C153.237 53.936 152.789 52.72 155.221 50.736L159.509 47.216C160.149 46.64 161.173 46 162.069 46C162.965 46 163.733 46.704 163.733 49.008V68.336C163.733 73.584 165.525 75.056 165.525 76.528C165.525 78 163.733 78 163.733 78H155.221C153.429 78 153.429 76.528 153.429 76.528C153.429 75.056 155.221 73.584 155.221 68.336V55.984ZM153.685 35.888C153.685 32.688 156.245 30 159.509 30C162.709 30 165.269 32.688 165.269 35.888C165.269 39.152 162.709 41.712 159.509 41.712C156.245 41.712 153.685 39.152 153.685 35.888ZM182.597 78.64C172.741 78.64 167.429 70.768 167.429 61.424C167.429 51.44 172.741 45.36 182.149 45.36C187.973 45.36 194.117 48.048 194.117 55.28C194.117 61.552 188.997 62.704 183.557 62.704H176.837C176.837 72.688 180.357 76.528 182.597 76.528C185.349 76.528 187.461 73.328 188.549 70.384C189.061 68.976 190.149 68.4 191.173 68.4C192.709 68.4 194.181 69.744 193.605 71.6C192.773 74.288 188.741 78.64 182.597 78.64ZM182.149 47.472C180.293 47.472 177.285 51.952 176.901 60.592H180.997C184.005 60.592 184.709 57.584 184.709 55.024C184.709 51.44 184.005 47.472 182.149 47.472ZM196.517 48.112C195.045 48.112 195.045 46 196.517 46H200.997V42.608C200.997 33.904 207.333 29.36 215.269 29.36C221.157 29.36 226.661 31.216 226.661 35.504C226.661 37.104 225.253 38.96 222.757 38.96C218.085 38.96 219.237 31.472 215.269 31.472C212.261 31.472 209.509 33.904 209.509 42.608V46H213.989C215.461 46 215.461 48.112 213.989 48.112H209.509V68.336C209.509 73.584 211.301 75.056 211.301 76.528C211.301 78 209.509 78 209.509 78H200.997C199.205 78 199.205 76.528 199.205 76.528C199.205 75.056 200.997 73.584 200.997 68.336V48.112H196.517Z" fill="#CD2A3C"/>
</svg>
