<?xml version="1.0" encoding="UTF-8"?>
<svg id="Layer_2" data-name="Layer 2" xmlns="http://www.w3.org/2000/svg" viewBox="0 0 177.83 121.47">
  <defs>
    <style>
      .cls-1 {
        fill: #fff;
      }

      .cls-2 {
        fill: #234ba3;
      }

      .cls-3 {
        fill: #cd2a3c;
      }
    </style>
  </defs>
  <g id="Layer_1-2" data-name="Layer 1">
    <g>
      <circle cx="121.96" cy="60.74" r="55.88"/>
      <circle class="cls-3" cx="120.99" cy="60.74" r="14.09"/>
      <circle cx="120.99" cy="60.74" r="1.46"/>
      <rect class="cls-2" width="121.47" height="121.47"/>
      <g>
        <path class="cls-1" d="M18.64,2.64c3.55-.26,6.56,19.81,6.51,43.75.05,23.85-2.96,44.09-6.51,43.75h-9.88v28.25H2.05V2.64h16.59ZM16.96,56.21c.4,0,.74-.95,1.02-2.84.29-1.98.44-4.31.44-6.98s-.14-5.08-.44-6.98c-.28-1.98-.63-2.93-1.02-2.93h-8.2v19.72h8.2Z"/>
        <path class="cls-1" d="M33.68,2.47v79.05h13.44v36.69h-20.15V2.47h6.71Z"/>
        <path class="cls-1" d="M56.87,2.64h7.98l9.24,115.74h-7.56l-1.36-19.81h-8.62l-1.36,19.81h-7.56L56.87,2.64ZM58.49,70.33h4.73l-2.36-34.19-2.37,34.19Z"/>
        <path class="cls-1" d="M83.84,2.64h7.98l9.24,115.74h-7.56l-1.36-19.81h-8.62l-1.36,19.81h-7.56L83.84,2.64ZM85.46,70.33h4.73l-2.36-34.19-2.37,34.19Z"/>
        <path class="cls-1" d="M104.58,118.38V39.33h-7.98V2.64h22.67v36.69h-7.98v79.05h-6.71Z"/>
      </g>
      <g>
        <path class="cls-1" d="M130.17,12.9l17.28,9.23-2.4,4.49-11.76-6.28-.92,1.73,10.38,5.54-2.21,4.14-10.38-5.54-2.03,3.81-5.53-2.95,7.57-14.17Z"/>
        <path class="cls-1" d="M162.48,45.72l-10.66,2.67,3.05,12.18-4.94,1.24-4.57-18.26,15.6-3.91,1.52,6.08Z"/>
        <path class="cls-1" d="M159.22,83.35l-14.7-6.54,2.55-5.73,14.7,6.54-2.55,5.73Z"/>
        <path class="cls-1" d="M131.4,107.16c-3.01,1.38-6.71-.02-8.02-3.08-1.39-3.01.03-6.72,3.08-8.02l8.43-3.75-1.59-3.58,5.73-2.55,6.54,14.69-14.15,6.3ZM129.8,99.73c-.34.15-.58.4-.71.75-.14.36-.13.71.02,1.05.16.35.41.59.76.72.35.15.7.13,1.04-.02l6.99-3.11-1.11-2.5-6.99,3.11Z"/>
      </g>
    </g>
  </g>
</svg>